# xmcd
#
# Track frame offsets:
#	150
#	21744
#	41532
#	52867
#	64770
#	78517
#	90367
#	108892
#	119317
#	134090
#	154642
#	167617
#	179692
#	192562
#	205792
#
# Disc length: 2978
#
# Revision: 2
# Processed by: cddbd v1.5.1PL0 Copyright (c) Steve Scherf et al.
# Submitted via: audiograbber 1.83.01
# Normalized: r1:DSETVAR1
#
DISCID=cc0ba00f
DTITLE=Various Artist - Soul Classics 1969 - (Volume 6)
DYEAR=1999
DGENRE=Soul
TTITLE0=Otis Redding - Papa's Got A Brand New Bag
TTITLE1=Aretha Franklin - Today I Sing The Blues
TTITLE2=Sam and Dave - Soul Sister, Brown Sugar
TTITLE3=William Bell and Judy Clay - My Baby Specializes
TTITLE4=Percy Sledge - My Special Prayer
TTITLE5=Johnny Taylor - Take Care Of Your Homework
TTITLE6=Wilson Pickett - Hey Jude
TTITLE7=Otis Redding - Love Man
TTITLE8=Booker T. and The MG's - Time Is Tight
TTITLE9=Isaac Hayes - Walk On By
TTITLE10=Aretha Franklin - The Weight
TTITLE11=Clarence Carter - I Smell A Rat
TTITLE12=The Emotions - So I Can Love You
TTITLE13=Carla Thomas - I Like What You're Doing (To Me)
TTITLE14=John Lee Hooker - Grinder Man
EXTD=
EXTT0=
EXTT1=
EXTT2=
EXTT3=
EXTT4=
EXTT5=
EXTT6=
EXTT7=
EXTT8=
EXTT9=
EXTT10=
EXTT11=
EXTT12=
EXTT13=
EXTT14=
PLAYORDER=
